<svg width="57" height="52" viewBox="0 0 57 52" fill="none" xmlns="http://www.w3.org/2000/svg">
<path d="M4.38076 13.4846C8.54642 10.2145 13.2065 8.13556 18.0009 6.94209C22.9108 5.71907 27.9963 5.55198 32.9484 6.4647C37.8216 7.36378 42.5972 9.33131 46.8336 12.5446C48.9939 14.1825 51.0521 16.1 52.6813 18.5529C54.3329 21.0387 55.576 24.0269 56.083 27.2266C56.5881 30.4183 56.2451 33.7236 54.9974 36.5811C53.7453 39.45 51.7642 41.6983 49.6164 43.4658C47.2375 45.423 44.6025 46.895 41.9219 48.0476C39.0692 49.274 36.1082 50.1117 33.1141 50.5277C27.2055 51.3495 21.0344 50.6345 15.4331 48.043C10.2034 45.6242 5.34179 41.0663 3.24597 34.3158C2.28315 31.2162 1.99475 27.8358 2.52587 24.5634C3.05251 21.3206 4.24283 18.2914 5.87291 15.7147C7.56031 13.0458 9.66419 10.8908 12.0305 9.26197C14.6243 7.47745 17.4635 6.33285 20.3511 5.61449C23.2297 4.89727 26.1728 4.59152 29.1033 4.54378C32.0653 4.49604 35.0433 4.75519 37.9434 5.54516C40.7629 6.31353 43.5143 7.58202 45.9666 9.52908C48.161 11.2716 50.0866 13.6062 51.5411 16.3251C52.9822 19.0178 53.9961 22.1356 54.2388 25.3932C54.4878 28.7258 53.9012 32.0346 52.6849 34.9921C50.1466 41.1652 45.3701 45.564 40.3482 48.0691C35.1445 50.6664 29.4329 51.4438 23.8835 50.7959C18.5356 50.1708 13.1527 48.1317 8.75242 44.1352C6.68705 42.2598 4.83664 39.9319 3.4654 37.2085C2.26076 34.8171 1.41974 32.1528 0.991621 29.3669C0.151503 23.9053 0.973708 18.0823 3.45197 13.4641C6.12279 8.48565 10.5151 5.64405 14.9181 3.82315C19.7716 1.81584 24.9242 0.886071 30.0214 0.823556C31.1607 0.809916 32.2972 0.850835 33.4338 0.92699C34.5059 0.998598 35.5896 1.05429 36.6528 1.25434C36.9645 1.31345 37.0988 0.707618 36.7844 0.648513C35.647 0.434825 34.5104 0.201814 33.3604 0.109746C32.145 0.0119946 30.9251 -0.0164214 29.7079 0.00858471C27.0872 0.0620068 24.4684 0.360943 21.8799 0.888344C19.2835 1.41688 16.7103 2.18298 14.2204 3.26392C11.9167 4.26417 9.6615 5.5247 7.61853 7.21716C5.63825 8.85619 3.93024 10.9624 2.64678 13.488C1.42512 15.892 0.608283 18.6279 0.239276 21.4479C-0.515756 27.2163 0.537527 33.2667 3.0955 38.1258C6.1219 43.8749 10.988 47.6838 16.0985 49.7798C21.4867 51.9894 27.3407 52.5089 32.9385 51.52C38.5856 50.522 44.1189 47.7975 48.487 43.0747C52.6598 38.5634 55.7077 31.9277 54.9885 24.7794C54.3051 17.9846 50.7207 11.9638 46.1708 8.46064C40.9967 4.47672 34.78 3.37077 28.8212 3.50944C22.8231 3.64811 16.5876 4.81657 11.2925 8.59817C6.59749 11.9513 2.67634 17.7379 1.69918 24.5975C1.21016 28.0313 1.52364 31.5515 2.57244 34.775C3.63558 38.0428 5.33373 40.9538 7.43044 43.2748C11.9956 48.3283 18.1227 50.6232 24.0456 51.4313C30.188 52.269 36.4933 51.3609 42.3339 48.808C45.0683 47.6122 47.766 46.0959 50.1824 44.0659C52.392 42.2086 54.4206 39.849 55.6826 36.8528C56.9347 33.8805 57.276 30.4933 56.7843 27.1936C56.289 23.8723 55.0082 20.7807 53.3271 18.1823C51.6827 15.6408 49.5806 13.6505 47.3746 11.9547C45.2232 10.3009 42.9223 8.96304 40.5462 7.92187C35.7016 5.79863 30.5328 4.91432 25.4169 5.11778C20.3421 5.31897 15.2862 6.567 10.5867 9.02555C8.38162 10.1792 6.25535 11.5591 4.25626 13.2141C4.1237 13.3243 4.24462 13.5926 4.38076 13.4857V13.4846Z" fill="black"/>
</svg>
